<svg width="155" height="50" viewBox="0 0 155 50" fill="none" xmlns="http://www.w3.org/2000/svg">
<path d="M75.7326 21.8788L70.199 7.03032H73.2115L77.4204 18.5273L81.5865 7.03032H84.6204L79.0655 21.8788H75.7326Z" fill="#F96A67"/>
<path d="M86.1877 21.8788V7.03032H96.5924V9.51213H88.9865V13.2243H96.4215V15.6424H88.9865V19.397H96.5924V21.8788H86.1877Z" fill="#F96A67"/>
<path d="M105.754 22.0909C103.618 22.0909 101.816 21.3485 100.349 19.8637C98.8817 18.3788 98.1482 16.5758 98.1482 14.4546C98.1482 12.3333 98.8817 10.5303 100.349 9.04547C101.816 7.56062 103.618 6.81819 105.754 6.81819C107.193 6.81819 108.503 7.1788 109.685 7.90001C110.867 8.62122 111.779 9.58991 112.42 10.8061L109.899 12.0788C109.486 11.3434 108.909 10.7566 108.168 10.3182C107.428 9.86567 106.616 9.63941 105.733 9.63941C104.394 9.63941 103.269 10.1131 102.357 11.0606C101.446 11.994 100.99 13.1253 100.99 14.4546C100.99 15.7839 101.446 16.9222 102.357 17.8697C103.269 18.803 104.394 19.2697 105.733 19.2697C106.63 19.2697 107.449 19.0434 108.19 18.5909C108.945 18.1384 109.521 17.5303 109.92 16.7667L112.463 18.0394C111.822 19.2697 110.903 20.2525 109.707 20.9879C108.524 21.7232 107.207 22.0909 105.754 22.0909Z" fill="#F96A67"/>
<path d="M118.034 21.8788V9.49092H113.099V7.03032H125.768V9.49092H120.833V21.8788H118.034Z" fill="#F96A67"/>
<path d="M133.67 22.0909C131.534 22.0909 129.732 21.3485 128.265 19.8637C126.798 18.3788 126.065 16.5758 126.065 14.4546C126.065 12.3333 126.798 10.5303 128.265 9.04547C129.732 7.56062 131.534 6.81819 133.67 6.81819C135.793 6.81819 137.587 7.56062 139.054 9.04547C140.521 10.5303 141.255 12.3333 141.255 14.4546C141.255 16.5758 140.521 18.3788 139.054 19.8637C137.587 21.3485 135.793 22.0909 133.67 22.0909ZM133.67 19.3758C135.024 19.3758 136.156 18.902 137.067 17.9546C137.993 17.0071 138.456 15.8404 138.456 14.4546C138.456 13.0687 137.993 11.902 137.067 10.9546C136.156 10.0071 135.024 9.53335 133.67 9.53335C132.303 9.53335 131.157 10.0071 130.231 10.9546C129.319 11.902 128.863 13.0687 128.863 14.4546C128.863 15.8404 129.319 17.0071 130.231 17.9546C131.157 18.902 132.303 19.3758 133.67 19.3758Z" fill="#F96A67"/>
<path d="M155 21.8788H151.923L149.231 16.4909H146.112V21.8788H143.335V7.03032H149.68C151.076 7.03032 152.258 7.46163 153.227 8.32425C154.209 9.17274 154.701 10.3182 154.701 11.7606C154.701 12.7929 154.437 13.6839 153.91 14.4333C153.398 15.1828 152.707 15.7344 151.838 16.0879L155 21.8788ZM146.112 9.49092V14.1152H149.402C150.143 14.1152 150.741 13.903 151.197 13.4788C151.653 13.0546 151.881 12.496 151.881 11.803C151.881 11.1101 151.653 10.5515 151.197 10.1273C150.741 9.70304 150.143 9.49092 149.402 9.49092H146.112Z" fill="#F96A67"/>
<path d="M75.2625 43.0909V30.703H70.3272V28.2424H82.9966V30.703H78.0613V43.0909H75.2625Z" fill="#F96A67"/>
<path d="M96.3507 43.0909H93.2742L90.5822 37.703H87.4629V43.0909H84.6855V28.2424H91.0309C92.4267 28.2424 93.6089 28.6737 94.5774 29.5364C95.5602 30.3849 96.0516 31.5303 96.0516 32.9727C96.0516 34.0051 95.7881 34.896 95.2611 35.6455C94.7484 36.395 94.0575 36.9465 93.1887 37.3L96.3507 43.0909ZM87.4629 30.703V35.3273H90.7531C91.4938 35.3273 92.092 35.1152 92.5478 34.6909C93.0035 34.2667 93.2314 33.7081 93.2314 33.0152C93.2314 32.3222 93.0035 31.7636 92.5478 31.3394C92.092 30.9152 91.4938 30.703 90.7531 30.703H87.4629Z" fill="#F96A67"/>
<path d="M97.3225 43.0909L103.369 28.2424H106.317L112.47 43.0909H109.372L108.347 40.503H101.425L100.399 43.0909H97.3225ZM102.322 37.9576H107.428L104.886 31.4455H104.843L102.322 37.9576Z" fill="#F96A67"/>
<path d="M114 43.0909V28.2424L119.683 28.2212C121.036 28.2212 122.275 28.5041 123.4 29.0697C124.525 29.6212 125.437 30.4697 126.135 31.6152C126.833 32.7606 127.182 34.1041 127.182 35.6455C127.182 37.9505 126.455 39.7677 125.003 41.097C123.55 42.4263 121.777 43.0909 119.683 43.0909H114ZM116.798 40.3758H119.576C120.972 40.3758 122.118 39.9727 123.016 39.1667C123.913 38.3465 124.362 37.1727 124.362 35.6455C124.362 34.1182 123.913 32.9586 123.016 32.1667C122.133 31.3606 120.986 30.9576 119.576 30.9576H116.798V40.3758Z" fill="#F96A67"/>
<path d="M129.251 43.0909V28.2424H139.656V30.7243H132.05V34.4364H139.485V36.8546H132.05V40.6091H139.656V43.0909H129.251Z" fill="#F96A67"/>
<path d="M45.2395 25C45.2395 35.0501 36.9992 43.1973 26.8341 43.1973C26.7767 43.1973 26.7194 43.197 26.6621 43.1965V49.9994C26.7194 49.9998 26.7767 50 26.8341 50C40.7992 50 52.1201 38.8071 52.1201 25C52.1201 11.1929 40.7992 0 26.8341 0C12.8691 0 1.54814 11.1929 1.54814 25C1.54814 27.922 2.05516 30.7268 2.98696 33.3333H10.4677C9.16453 30.8366 8.42868 28.0032 8.42868 25C8.42868 14.9499 16.6691 6.80272 26.8341 6.80272C36.9992 6.80272 45.2395 14.9499 45.2395 25Z" fill="#F96A67"/>
<path d="M53.7579 7.33334C52.4569 5.48209 51.7747 4.55388 51.7747 4.55388C51.7747 4.55388 53.8494 4.52556 55.1503 6.37681C56.4513 8.22806 55.7007 10.1405 55.7007 10.1405C55.7007 10.1405 55.0588 9.18459 53.7579 7.33334Z" fill="#F96A67"/>
<path d="M54.708 7.7912C55.0122 7.59714 55.3191 7.39438 55.627 7.18289C59.4053 4.58745 59.5166 3.40136 59.5166 3.40136C59.5166 3.40136 58.2482 2.94086 54.4699 5.5363C54.162 5.74779 53.8627 5.96149 53.5727 6.17563L54.708 7.7912Z" fill="#F96A67"/>
<path d="M55.3884 6.12244L0 47.6191L3.25709 33.6595L55.3884 6.12244Z" fill="#F96A67"/>
</svg>
